<?xml version="1.0" encoding="UTF-8" standalone="no"?>
<!-- Generator: Adobe Illustrator 21.0.0, SVG Export Plug-In . SVG Version: 6.00 Build 0)  -->

<svg
   xmlns:dc="http://purl.org/dc/elements/1.1/"
   xmlns:cc="http://creativecommons.org/ns#"
   xmlns:rdf="http://www.w3.org/1999/02/22-rdf-syntax-ns#"
   xmlns:svg="http://www.w3.org/2000/svg"
   xmlns="http://www.w3.org/2000/svg"
   xmlns:sodipodi="http://sodipodi.sourceforge.net/DTD/sodipodi-0.dtd"
   xmlns:inkscape="http://www.inkscape.org/namespaces/inkscape"
   version="1.1"
   id="Layer_1"
   x="0px"
   y="0px"
   viewBox="0 0 541.47577 403.5"
   xml:space="preserve"
   inkscape:version="0.91 r13725"
   sodipodi:docname="logo.svg"
   width="541.47577"
   height="403.5"><metadata
     id="metadata452"><rdf:RDF><cc:Work
         rdf:about=""><dc:format>image/svg+xml</dc:format><dc:type
           rdf:resource="http://purl.org/dc/dcmitype/StillImage" /><dc:title></dc:title></cc:Work></rdf:RDF></metadata><defs
     id="defs450" /><sodipodi:namedview
     pagecolor="#ffffff"
     bordercolor="#666666"
     borderopacity="1"
     objecttolerance="10"
     gridtolerance="10"
     guidetolerance="10"
     inkscape:pageopacity="0"
     inkscape:pageshadow="2"
     inkscape:window-width="1387"
     inkscape:window-height="805"
     id="namedview448"
     showgrid="false"
     inkscape:zoom="0.5959596"
     inkscape:cx="557.87143"
     inkscape:cy="21.045159"
     inkscape:window-x="290"
     inkscape:window-y="168"
     inkscape:window-maximized="0"
     inkscape:current-layer="Layer_1"
     fit-margin-top="0"
     fit-margin-left="0"
     fit-margin-right="0"
     fit-margin-bottom="0" /><style
     type="text/css"
     id="style3">
	.st0{fill:#F1F1F2;}
	.st1{fill:#F241AF;}
	.st2{fill:#FFFFFF;}
</style><g
     id="lZJ5Yi.tif"
     transform="translate(-669,-261.7)"
     inkscape:export-xdpi="19.851301"
     inkscape:export-ydpi="19.851301"><g
       id="g394"><path
         class="st1"
         d="m 669,389 c 0.5,-2.3 1,-4.6 1.6,-6.9 4.9,-17.3 19.6,-29.6 37.5,-32.2 9.9,-1.5 18.9,-0.5 26,7 2.7,2.8 4.1,6.8 5.9,10 4,-5.5 8.2,-12 13.2,-17.9 9.5,-11.1 19.7,-21.5 32.9,-28.4 11.6,-6.1 22.9,-8 33.8,4.5 6.3,-4 12.1,-8.6 18.7,-11.6 4.4,-2 9.7,-1.8 14.6,-2.9 1.4,-0.3 2.9,-1.2 4,-2.3 6.2,-6.6 13.3,-11.9 22,-14.8 12.1,-4.1 23.8,-3.6 33.2,5.6 9.4,9.1 10.7,20.8 6.9,33 -1.7,5.4 -3.9,10.7 -5.9,16.2 6.3,3.6 12.7,0.5 18.9,-0.7 5.5,-1.1 10.7,-1.6 15.9,1.2 0.8,0.4 2.3,0.9 2.6,0.5 3.4,-3.4 8.6,-3.8 9.8,-10.8 2.6,-15.2 9.8,-28.5 23.5,-37.3 8.6,-5.5 17.3,-6.2 25.8,-0.3 7.3,5.1 9.3,12.7 8.2,21.2 -0.4,3 -0.7,6 -0.3,9.3 5.9,-9.8 11.8,-19.6 17.7,-29.5 1.7,-2.8 3.2,-5.7 4.9,-8.6 3.2,-5.5 7.8,-8.9 13.8,-11.3 6.1,-2.5 12,-6.1 17.1,-10.2 4.9,-4 9.4,-8.5 15.8,-10.1 1.3,0 2.7,0 4,0 4,2.4 8.8,3.9 11.7,7.2 6,6.6 5.6,14.1 0.2,22.2 -7,10.5 -14.1,21 -21.1,31.5 4,0.7 7.9,1 11.5,2.1 3.6,1.1 6.9,3 9.3,4.1 4.6,-3.1 8.6,-7.3 13.4,-8.8 8.1,-2.6 16.6,-4.5 25,-4.7 5,-0.2 10.2,3.4 14.6,5 4.4,-6.5 8.8,-14.4 14.6,-21 8,-9 19.1,-10.8 27.9,-6.9 10.8,4.7 15.5,18.4 9.9,31.4 -1.6,3.7 -3.9,7.3 -6.4,10.5 -2.3,3 -3.5,6 -2.8,9.6 2.2,10.4 -0.4,20.3 -3.1,30.2 -3.7,13.3 -10.6,24.9 -19.9,34.9 -6.5,6.9 -14.7,11.7 -23.7,14.6 -2.6,0.8 -4.3,1.4 -4.5,4.7 -0.2,2.1 -1.7,4.3 -2.9,6.2 -9.5,14.4 -19,28.7 -28.8,43.3 12.1,-2.2 22.8,-1 31.5,8.2 0.6,-0.8 1.2,-1.2 1.4,-1.8 3.5,-8.3 9.8,-12.2 18.7,-13.1 6.5,-0.7 13,-1.9 19.5,-3.2 7.6,-1.6 13.2,1.1 17.4,7.2 4.4,6.2 4.2,12.4 0.1,18.9 -3.4,5.4 -6.4,11.1 -9.5,16.6 8.9,6.5 10.8,16.3 4.7,26 -10.2,16 -19.4,32.7 -33.1,46.1 -8.9,8.7 -19.3,14.6 -32.3,13.3 -4,-0.4 -8.2,-1.3 -11.7,-3.2 -3.5,-2 -5.4,-0.5 -8.2,1.1 -6.1,3.4 -12.3,6.9 -18.8,9.1 -8.3,2.8 -16.2,0.2 -23.3,-4.7 -0.6,-0.4 -1.5,-0.6 -2,-0.8 -5.2,9.5 -9.9,19.1 -15.7,28 -9.7,15 -21.1,28.5 -37.8,36.1 -3.7,1.7 -7.9,2.5 -11.9,3.6 -1.7,0 -3.3,0 -5,0 -5,-2.2 -10.6,-3.5 -14.8,-6.6 -10.4,-7.7 -12.8,-18.9 -11.6,-31.2 0.1,-1.5 0.3,-2.9 0.6,-5 -12.8,4 -23.6,1.1 -32.1,-6.7 -7.5,4.7 -14,9.9 -21.4,13.3 -13.8,6.4 -28.2,5.3 -42.6,1.3 -2.3,-0.6 -5.5,-0.3 -7.6,0.8 -14.7,8.4 -30,14.8 -47.2,14 -19,-0.9 -31.8,-13.9 -30.1,-31.8 1.2,-12.7 8.3,-22.3 18.9,-28.7 8.6,-5.3 18,-9.1 27.2,-13.6 -1.4,-1.1 -3.5,-2.9 -5.8,-4.8 -5.1,7.9 -13.6,7.7 -21.3,9 -13.6,2.3 -27.3,4.1 -41,6.2 -7.7,1.2 -13.8,-1.5 -17.2,-7.5 -4.3,-7.5 -3.9,-13.5 1.3,-20.1 1.2,-1.6 2.4,-3.1 3.8,-5 -6.6,-2.4 -11.9,-5.7 -14.1,-12.7 -2.2,-7 -0.1,-16.6 6.8,-22.1 10,-8.1 19.2,-17.2 29.7,-26.7 -9.7,-2.7 -16.6,-6.5 -18.9,-16.3 -4,3.5 -7.8,6.8 -11.6,10.1 -5.1,4.5 -10,9.3 -15.4,13.3 -10.3,7.5 -19.9,5.8 -26.9,-1.1 -7.4,-7.2 -7.5,-17.8 0.3,-26.7 6.3,-7.2 7.2,-15.6 8.2,-24.3 0.6,-5.1 1.1,-10.1 1.7,-15.9 -5,0 -10.2,0.4 -15.4,-0.1 -14.2,-1.3 -28.3,-9.1 -32.8,-25 -0.5,-2 -1.1,-3.9 -1.6,-5.9 C 669,393 669,391 669,389 Z m 183.2,184.8 c -0.2,0.1 -0.9,0.5 -1.7,0.8 -0.5,0.2 -1,0.2 -1.5,0.3 -14.9,1.2 -28.1,6.9 -39.5,16.3 -8.3,6.8 -13.6,16.1 -12.3,26.9 2.3,19 17.9,23.7 31.5,22.8 14.5,-1 27.9,-6.1 40,-14.2 3.5,-2.4 6.4,-2.4 10.4,-1 16.4,5.8 32.5,5 47.3,-4.5 5.4,-3.5 10,-8.3 15.1,-12.7 10.1,13.4 23.3,14.2 37.4,7.2 -0.4,7.3 -1.2,14.5 -1,21.7 0.1,6.9 3.6,12.4 8.5,17.2 8.4,8.3 24.2,6.7 33.7,0.8 11.4,-7.1 20.7,-16.5 27.8,-27.8 7.6,-12.1 14.3,-24.9 21.3,-37.1 11.9,12.2 29,14.1 49.8,-5.4 4.3,4.2 9.3,6.9 15.6,7.1 11.3,0.3 20.5,-4.4 28.4,-11.8 12.2,-11.6 20.7,-26 29.4,-40.3 2.1,-3.5 4.8,-6.9 6.1,-10.7 2.4,-6.7 -0.6,-11.7 -9.4,-17.1 3.9,-6.8 7.8,-13.7 11.8,-20.5 3.2,-5.4 3,-11 -0.8,-15.8 -3.7,-4.7 -9,-4.8 -14.6,-3.7 -6.6,1.3 -13.2,2.7 -19.9,3.5 -4.8,0.5 -8.5,2.3 -11,6.4 -2.4,3.9 -4.7,7.7 -7.2,11.7 -7.8,-12.9 -19.4,-17.2 -41.3,-8.2 0.6,-1.2 1,-2.2 1.6,-3.1 8.1,-12.2 16.6,-24.1 24.3,-36.5 4.8,-7.8 12.8,-14.2 11.9,-24.8 15.8,-2.5 27.2,-11.4 36,-24 11.6,-16.6 16.5,-35.1 14.6,-55.2 -0.3,-3.5 0.2,-5.5 2.4,-8.2 5.4,-6.5 9.4,-13.8 8.9,-22.9 -0.6,-11.4 -10.9,-18.9 -21.8,-15.3 -14.3,4.7 -20.2,16.4 -24.5,29.5 -0.9,2.7 -2.4,5.1 -4.2,8.6 -4,-13.3 -8.3,-15.7 -20.6,-13 -4.3,0.9 -8.8,1.6 -13.2,2.1 -6.3,0.7 -11.5,2.7 -14.2,9 -0.8,1.9 -2.3,3.4 -3.6,5.3 -8.5,-11.3 -19.5,-10.6 -31.8,-7.4 1.3,-2.1 2.2,-3.5 3.1,-4.8 8.4,-12.6 16.8,-25.3 25.1,-38 4.7,-7.1 1.4,-16.3 -6.5,-19.3 -6.8,-2.5 -12.3,-0.5 -17,4.5 -6.2,6.6 -13.3,12.1 -22.2,14.3 -5,1.3 -8,4.2 -10.5,8.3 -8.5,14.2 -17,28.5 -25.6,42.8 -2.7,-1.2 -5.2,-2.4 -7.6,-3.5 0.8,-2.9 1.9,-5.6 2.3,-8.3 1.1,-7.7 1.5,-15.5 -5.5,-20.9 -7.1,-5.5 -14.5,-5.6 -22.8,0.3 -12.8,9.1 -19.1,22.2 -21.5,37.5 -0.3,1.8 -1.1,4.1 -2.5,5.1 -3.8,2.8 -8.1,5 -12.2,7.4 -5,-4.3 -8.7,-5.5 -13.9,-4.1 -9.4,2.5 -18.7,5.4 -28.2,-0.3 1,-2.1 2.6,-4.5 3.4,-7.1 2.3,-7.5 6,-15 6.1,-22.6 0.2,-18.6 -13.4,-28.9 -32.9,-24.6 -9.3,2 -17.1,7 -23.3,14.3 -2.6,3 -5.2,4.6 -9.4,4.1 -6.2,-0.8 -11.7,1.5 -16.6,5 -5.3,3.8 -10.4,8 -15.8,12.2 -0.4,-0.8 -0.7,-1.3 -1,-1.9 -4.4,-8 -11.9,-11.4 -20.7,-9.3 -10.3,2.4 -18.4,8.7 -26.1,15.5 -14.3,12.6 -25.3,27.8 -33.8,44.9 -2.4,4.7 -11.3,6.1 -15.3,2.1 1.7,-0.8 3.4,-1.4 4.9,-2.4 2.2,-1.6 4.9,-3 6.3,-5.2 5.7,-9.2 -1.2,-20.7 -13.2,-21.8 -16.6,-1.6 -30.5,4 -39.9,17.8 -12.1,17.6 -7.7,44.7 19.8,49.2 7.8,1.3 15.9,0.9 23.7,1.3 -0.8,8.1 -1.5,16.7 -2.6,25.3 -1.1,7.9 -3.2,15.3 -9,21.4 -4.3,4.6 -5.3,10.6 -2.9,16.6 3.6,8.9 14.9,12 23.3,5.5 9.6,-7.4 18.2,-15.9 27.3,-23.9 1.4,-1.2 2.6,-2.6 4,-3.7 1.3,-1 2.7,-1.9 4.8,-3.4 -3.8,7.6 -2,13.2 3.3,18.1 5.5,5.2 11.9,3.4 19,1.6 -0.9,1.5 -1.2,2.2 -1.6,2.6 -11.4,11.5 -22.8,23.1 -34.4,34.3 -5.8,5.6 -8,11.7 -5.4,18.5 2.2,5.8 7.8,9.2 15.7,8.8 4.5,-0.2 9,-1.3 13.7,-2 -3.6,5.4 -4.4,5.9 -9.8,6.9 -9.3,1.7 -15.7,12.1 -12.4,20.3 2.4,6.2 9.5,8.9 17.6,7.5 12,-2.1 24.1,-3.7 36,-5.9 8.8,-1.6 19.1,-0.8 22.5,-11.1 7.3,4.9 13.9,9.4 20.5,14.1 z"
         id="path396"
         inkscape:connector-curvature="0"
         style="fill:#f241af" /><path
         class="st1"
         d="m 780.2,437.5 c -4.6,4.1 -8.4,7.5 -12.2,11 -12.4,11.3 -24.6,22.7 -37.1,34 -5,4.5 -11.3,4.6 -15.2,0.7 -3.8,-3.8 -3.8,-9.6 0.6,-14.7 6.7,-7.7 9,-16.8 9.9,-26.7 1,-10.1 2.8,-20.1 4.2,-30.4 -4.3,0.7 -8.9,1.4 -13.5,2.1 -8.7,1.3 -17.3,0.2 -25.1,-3.7 -11.1,-5.6 -16,-17.4 -10.8,-31.9 5.4,-15 26.3,-26.5 40.4,-21.6 2.8,1 5.5,3.2 7.4,5.4 3,3.5 0.7,9.1 -4,11.3 -1.9,0.9 -4.4,1.6 -5.3,3.2 -1.4,2.4 -2.4,5.5 -2,8.1 0.2,1.2 3.9,2.3 6.2,2.7 2.6,0.4 5.4,0.4 8,0 4.4,-0.7 8.2,-1.3 10.7,-6.7 11,-23.3 26.9,-42.7 49.8,-55.6 2.4,-1.3 5.2,-2.2 8,-2.5 9.4,-0.8 16,7.2 13.5,16.4 -0.4,1.7 -1.1,3.3 -1,5.4 1.5,-1.7 3,-3.4 4.5,-5.1 7.4,-8.3 15.3,-16.1 25.7,-20.7 5.1,-2.3 10.4,-2.7 15.4,1 6.9,-10.6 15.8,-18.1 28.2,-21.3 14.6,-3.8 27.7,7.9 24.6,22.7 -1.3,6.1 -3,12.1 -5.4,17.8 -2.3,5.6 -5.7,10.7 -8.9,16.4 1.2,0 2.1,0 3,0 4.7,0.2 9.4,0.8 14,0.6 6.7,-0.3 13.6,-0.2 19.9,-1.9 8.9,-2.4 12.1,1.2 13.5,7.2 7,-4.6 14.3,-9.4 22.1,-14.6 -2.5,-15.3 10,-37.9 24.5,-42.3 7.9,-2.4 15.3,2.6 14.9,10.8 -0.3,5.5 -2,10.9 -3.3,16.3 -0.5,2 -1.5,3.8 -2.6,6.4 7.5,-2.9 12.4,-0.1 16.3,6.7 3.9,-6.5 7.5,-12.5 11.1,-18.5 6.3,-10.6 12.5,-21.3 19.1,-31.7 1.4,-2.2 3.9,-4.6 6.3,-5.2 10.3,-2.5 17.7,-9.1 25.3,-15.7 2.4,-2.1 6.4,-4.2 9.2,-3.8 7.4,1.2 9.4,6.7 5.2,13 -13.8,20.9 -27.7,41.7 -41.6,62.5 -0.3,0.5 -0.7,1.1 -1,1.6 0.3,0.4 0.6,0.8 0.8,1.1 1.8,-1.3 3.8,-2.3 5.3,-3.9 5.3,-5.6 10.8,-10.7 18.6,-12.6 13.2,-3.3 24.6,0.8 24.5,17.5 2.8,-4.6 5.6,-8.2 7.3,-12.2 3.4,-7.8 8.8,-11.7 17.4,-12 4.4,-0.2 8.8,-1.2 13.1,-2.4 3.8,-1.1 6.5,0.4 8,3.1 1.1,2.1 1.7,5.6 0.7,7.6 -3.1,6.5 -7,12.6 -10.1,19.9 2.3,-1.1 5.2,-1.6 6.8,-3.3 6.3,-6.8 12.3,-13.9 18.3,-21 0.7,-0.8 1.2,-2 1.4,-3 1.8,-10.8 7.3,-19.3 16.2,-25.5 5.2,-3.6 11.1,-3.7 15.1,-0.7 4.1,3.1 6.4,9.8 4,15.2 -2.4,5.4 -5.8,10.6 -9.4,15.3 -1.7,2.2 -2.3,3.9 -1.8,6.4 5.5,25.5 -8.5,58.8 -29.8,71.3 -10.1,5.9 -21,9.1 -32.1,1.9 -1.9,-1.3 -3.6,-2.9 -5.9,-4.9 -2.3,2.4 -4.6,5.2 -7.3,7.5 -7,5.9 -14.8,10.2 -24.3,7.3 -3.5,-1.1 -6.5,-3.9 -10.3,-6.2 -3.7,2.7 -8.4,6 -12.8,9.5 -9.3,7.4 -27.2,4.8 -30.7,-9.9 -0.1,-0.6 -0.7,-1.1 -0.5,-0.8 -4.5,9.6 -9.3,19.5 -13.7,29.6 -1.6,3.8 -2.4,8 -3.6,12.5 3,-0.2 4.7,-0.4 6.4,-0.5 9.5,-0.2 15.4,7.3 13.1,16.6 -1,4 -2,7.9 -3.4,11.8 -1.4,3.8 -3.2,7.4 -4.6,10.6 3.9,-0.3 8.1,-1.3 12.2,-0.7 4.8,0.7 7.1,4.7 7.9,10.2 6.8,-11.2 13.2,-21.7 19.5,-32.3 5.9,-9.7 11.6,-19.5 17.6,-29.2 1,-1.7 2.9,-3.4 4.7,-3.8 12.9,-3.1 22.5,-11.4 31.9,-20 4.2,-3.8 8.4,-4.3 12.3,-1.1 3.9,3.3 4.3,6.7 1,11.7 -16.2,24.3 -32.4,48.5 -48.6,72.7 -0.6,0.9 -1.1,2 -2,3.5 4.7,-0.7 8.1,-1.5 11.3,-5.3 7.2,-8.5 15.9,-14.5 27.9,-14.9 12.1,-0.4 21.1,8 17.4,23 -0.2,0.9 -0.3,1.8 0.3,3.1 4.4,-7.4 9.3,-14.6 13.2,-22.3 3.4,-6.8 8.5,-9.2 15.7,-9.7 5.4,-0.4 10.6,-2.4 15.9,-2.9 2.7,-0.3 6.8,0.3 8.2,2.1 1.6,2.1 2,6.6 0.8,8.9 -5.1,10 -10.9,19.5 -16.8,29.9 1.8,-0.1 3,0.1 4.1,-0.3 3.5,-1.3 6.9,-0.3 8.2,2.6 1.2,2.6 1.7,6.8 0.4,9.1 -6.6,11.2 -13.9,22 -21.1,32.7 -6.1,9 -13.2,17.1 -23.2,21.8 -7.8,3.6 -15.8,4.9 -23.2,-1 -2.1,-1.7 -3.7,-4.1 -5.7,-6.4 -7,6.6 -13.6,14 -23.9,16.8 -12.4,3.4 -28.1,-6 -25.5,-23 0.2,-1.4 0,-2.9 -0.3,-4.5 -3.5,15.5 -9,30.3 -16.7,44.1 -8.1,14.4 -17.7,27.7 -31.1,37.5 -7.1,5.2 -14.9,8.9 -24.3,6.5 -8.1,-2.1 -13.9,-9.4 -14.4,-18 -0.8,-11.9 2.8,-22.8 7.3,-33.5 0.2,-0.6 0.5,-1.1 0.1,-2.5 -1.6,1.3 -3.2,2.6 -4.8,3.9 -6.4,5.3 -13.2,9.8 -22,10.1 -15.5,0.4 -22.5,-14.2 -20.1,-25.5 0.8,-3.7 2.2,-7.2 3.3,-11 -0.8,-0.3 -1.7,-0.5 -2.5,-0.9 -6,-2.6 -7.3,-7.1 -3.8,-12.6 2.7,-4.3 5.4,-8.6 8.2,-12.9 2.7,-4.1 5.5,-8.1 8.8,-12.9 -8.3,5.3 -16.4,9.6 -23.2,15.4 -4.2,3.5 -6.3,9.5 -9.7,14.2 -4.6,6.4 -9.6,12.5 -14.4,18.8 5,2.4 10.1,0.9 13.9,-2.9 2.1,-2.1 6,-4.7 8,-4 2.8,1 5.9,4.5 6.7,7.5 3.2,11.4 -3.3,22.7 -16.2,30 -14.5,8.1 -29.4,7.8 -44.4,2.2 -3.9,-1.5 -6.7,-1.2 -10,1 -12.7,8.7 -26.5,14.5 -42.3,14.7 -9.1,0.1 -17.7,-2.2 -21.5,-11.1 -4.1,-9.6 -1.5,-18.8 5.7,-26.3 9.3,-9.8 21.5,-14.4 34.3,-17.4 5.7,-1.3 11.8,-1.7 17.7,-2 7,-0.4 7.6,-0.6 9.7,-7.7 -29.2,-2.1 -42,-15.3 -37.3,-40.3 -9.2,1 -9,10.1 -14,15.2 5.6,1.4 8.3,4.4 7.6,9.7 -0.6,4.5 -4.8,8.1 -9.9,8.9 -15.5,2.3 -30.9,4.7 -46.3,7.1 -6,1 -10,-0.9 -11.3,-5.6 -1,-3.7 3.2,-10.7 7.7,-11.3 12,-1.6 16.2,-11.1 21.2,-20.8 -4.9,1 -9.8,2 -14.6,3.1 -3,0.7 -6,1.7 -9.1,2.3 -4.9,0.9 -10.1,-2.1 -12,-6.8 -1.6,-3.9 0,-9 4,-11.8 14.1,-10.1 25.9,-22.6 36.1,-36.5 1.5,-2 2.5,-4.5 3.6,-6.4 -3.1,-1.8 -5.6,-3.3 -6.9,-4.1 -4.6,1 -8.6,2.8 -12.3,2.4 -5.6,-0.7 -7.8,-7.7 -5.1,-13.6 2.3,-5.2 4.5,-10.6 6.5,-15.9 0.3,-1.3 0.1,-3 0.4,-5.5 z M 877.5,564 c -1.9,3.5 -3.9,7.1 -5.9,10.6 -1.4,2.5 -3.3,3.5 -6.3,3.4 -5.9,-0.1 -12,0.1 -17.8,1.1 -13.7,2.3 -26.3,7.3 -36,17.9 -9.3,10.2 -7.1,26 4.7,29.5 5.4,1.6 11.7,1.2 17.5,0.7 13.8,-1.3 25.5,-8.2 36.7,-15.8 1.2,-0.8 3.6,-1 4.9,-0.4 8.9,4.3 18.2,5.9 27.9,5 12.4,-1.1 22.8,-6.1 30,-16.7 3.3,-4.9 3.5,-10.3 2.5,-15.7 -0.3,-1.7 -2.3,-3.6 -4,-4.5 -1,-0.5 -3.4,0.2 -4.4,1.2 -7.3,7.5 -13.5,8.9 -23.4,4.4 0.5,-0.8 1,-1.7 1.5,-2.4 7.9,-10.4 15.7,-20.8 23.6,-31.1 1.7,-2.2 3.3,-4.6 5.6,-5.9 19.4,-11.7 36.9,-25.5 51.7,-42.8 3.6,-4.2 7.2,-8.3 10.8,-12.4 -0.8,6.3 0.7,11.4 6.2,15.4 -7.5,-0.7 -14.3,0.4 -19.3,4.7 -6.6,5.6 -12.9,11.9 -18.2,18.7 -8.1,10.6 -15.3,21.8 -22.7,33 -1,1.5 -1.4,4.8 -0.5,5.9 1.1,1.3 3.9,1.2 6,1.6 1,0.2 2.1,0 3.5,0 -1.6,4.4 -3.1,8.4 -4.5,12.4 -4.7,13.4 3.4,23.3 11.9,25.1 8.1,1.7 14.8,-2.1 21,-6.8 12.5,-9.4 21.2,-22.1 29.6,-35.1 7.7,-12.1 15.2,-24.3 22.9,-36.3 0.6,-1 1.8,-1.5 2.8,-2.2 0.3,0.4 0.6,0.8 0.8,1.2 -2.7,4.1 -5.3,8.3 -8,12.4 -12.8,19.4 -25.6,38.7 -35.1,60 -4.2,9.5 -7.9,19.2 -7.5,29.9 0.3,7.2 4.7,16.6 14.3,17.5 7.1,0.7 12.9,-1.8 18.3,-5.4 14.5,-9.7 24.1,-23.8 32.4,-38.8 9.6,-17.3 15.3,-35.9 17.1,-54.8 3.8,0.3 7.2,0.6 10.2,0.8 -1.5,4.7 -3.2,9.4 -4.5,14.3 -2.1,7.6 -0.8,14.6 5.3,19.9 5.3,4.6 15.4,4.9 21.8,0.3 7.2,-5.1 13.8,-10.9 20.7,-16.5 1.8,6.6 5.6,12.4 13.4,12.2 5.1,-0.2 10.9,-1.6 15.2,-4.3 5.6,-3.5 10.9,-8.3 14.8,-13.6 8.9,-12.2 17,-25 25.2,-37.7 2.2,-3.4 0.2,-6.6 -3.8,-6.8 -3.8,-0.2 -6.4,1.2 -8.7,4.5 -3.3,4.9 -7.3,9.4 -11.1,14.1 -0.4,-0.3 -0.9,-0.6 -1.3,-0.9 0.2,-0.7 0.4,-1.4 0.7,-2 9.1,-16.1 18.2,-32.1 27.1,-48.2 1,-1.8 1.7,-5.2 0.7,-6.5 -1.1,-1.4 -4.3,-1.8 -6.5,-1.6 -4.7,0.5 -9.4,1.5 -14,2.7 -4.9,1.2 -10.1,0.5 -13.6,6.8 -8.5,15.4 -18.2,30.1 -27.8,44.9 -3,4.6 -7,8.5 -10.6,12.7 -0.6,-0.4 -1.2,-0.8 -1.8,-1.2 1.5,-2.9 3,-5.9 4.6,-8.8 4.7,-8.7 9.7,-17.1 14,-26 2.7,-5.6 3.8,-12 -0.5,-17.3 -4.4,-5.5 -10.4,-5.5 -17.1,-4.5 -10.4,1.6 -16.6,8.9 -23.3,15.7 -0.8,0.8 -1.4,2.2 -2.3,2.4 -5.1,1.4 -10.4,2.6 -16.2,4.1 0.8,-1.6 1.2,-2.8 1.9,-3.9 10.1,-15.2 20.3,-30.4 30.4,-45.5 7.4,-11.1 14.8,-22.1 22.2,-33.3 3.1,-4.7 2.5,-8.3 -2,-9.4 -2,-0.5 -5.1,0.8 -6.7,2.3 -9.1,9.1 -19,16.7 -31.8,20.1 -1.8,0.5 -3.5,2.4 -4.5,4.1 -13.8,22.8 -27.5,45.6 -41.4,68.4 -0.7,1.2 -2.4,1.8 -3.6,2.8 0.3,-3.3 1.3,-5.7 2.1,-8.1 1.7,-5.1 -0.1,-10.5 -3.8,-12.2 -4,-1.8 -10.2,0.2 -12.5,4.6 -1.8,3.4 -3,7.2 -4.1,11 -1.1,3.9 -0.7,8.4 -2.6,11.7 -6.4,11.6 -13.5,23 -20.5,34.3 -2,3.2 -4.9,5.9 -7.4,8.8 -0.5,-0.4 -1.1,-0.9 -1.6,-1.3 5.1,-8.6 10.3,-17.2 15.1,-26 3.8,-6.9 7.7,-14.1 4.9,-22.3 -1.1,-3.2 -4.1,-5.8 -6,-8.4 2.4,-1 5.8,-1.4 7.9,-3.3 11.7,-10.2 19.1,-22.7 19.2,-38.6 0,-7.3 -5.9,-10.9 -12.7,-8 -2.3,1 -4.5,2.1 -6.8,3.1 0.5,-5.6 0.1,-10.9 1.6,-15.6 1.6,-4.9 5,-9.2 7.6,-13.8 0.2,-0.3 0.1,-0.6 0.2,-1 4.2,-13.2 8.5,-26.4 12.7,-39.7 1.1,0.1 3.5,0.3 6.1,0.5 -1.3,3.6 -2.6,6.7 -3.7,10 -2,6.1 -1.9,12 2.6,17.1 6.5,7.2 16.5,7.6 25.3,0.8 4.7,-3.7 9,-7.9 12.9,-11.3 3.1,2.9 5.8,6.9 9.5,8.7 6.7,3.3 13.3,0.3 18.8,-3.7 4.9,-3.5 9,-8.1 13.6,-12.4 0.5,0.7 1.2,1.9 2,2.8 4.9,5.5 11.2,8.3 18.5,7.4 13.5,-1.7 23.4,-9.6 30.7,-20.5 10.4,-15.6 16.6,-32.7 12.7,-51.8 -1.1,-5.2 0.3,-8.3 4,-11.9 3.3,-3.3 5.7,-8 7.5,-12.5 1.9,-4.5 0.2,-8.9 -3.7,-11.8 -3.6,-2.7 -7.3,-1.1 -10.5,1 -7.5,4.9 -12.9,11.8 -14.4,20.5 -1.1,6.5 -5.3,10.3 -8.9,14.8 -1.9,2.3 -3.8,4.5 -5.8,6.8 -2.9,3.2 -5.4,7 -8.8,9.3 -5.8,3.8 -12.2,6.6 -18.3,9.9 0.6,0.2 0.8,-0.7 1.3,-1.5 5.5,-9.4 11.1,-18.6 16.4,-28.1 1.1,-1.9 1.6,-5.2 0.6,-6.8 -0.9,-1.3 -4.2,-1.7 -6.4,-1.5 -5.1,0.5 -10,1.9 -15.1,2.3 -3.6,0.3 -6.1,1.4 -8.1,4.6 -8.7,14.1 -17.6,28.2 -26.6,42.1 -1.8,2.8 -4.3,5 -6.5,7.5 -0.3,-0.3 -0.7,-0.5 -1,-0.8 1.2,-2.3 2.4,-4.5 3.6,-6.8 4.1,-7.7 9,-15.1 12,-23.2 4.2,-11.1 -1.5,-19.1 -13.3,-18.4 -9.3,0.5 -16.2,5.6 -21.6,12.4 -4.5,5.6 -11.1,4.8 -16.7,7 15.3,-23.8 30.8,-47.1 46.3,-70.4 1.9,-2.8 4.2,-5.9 0.7,-8.7 -3.5,-2.9 -6.5,-1 -9.4,2 -7.2,7.4 -15.6,13.1 -25.5,16.5 -2.5,0.9 -5.1,3 -6.5,5.2 -11.7,19.3 -23.2,38.7 -34.8,58 -0.5,0.8 -1.5,1.4 -2.2,2.1 0,-2.2 0.8,-3.6 1.4,-5.1 1.6,-4.3 0.4,-9.3 -2.6,-11.1 -3.9,-2.3 -9.2,-1.5 -11.9,2.7 -2.2,3.5 -4.6,7.6 -4.7,11.6 -0.2,5.3 -2.1,9.6 -4.5,13.9 -2.2,4 -4.5,8.1 -7,11.9 -4.1,6.4 -8.4,12.7 -12.7,19 -0.4,-0.2 -0.8,-0.5 -1.2,-0.7 1.2,-2.4 2.4,-4.9 3.7,-7.3 3.5,-6.2 7.3,-12.1 10.4,-18.5 4.7,-9.8 3.9,-15.3 -2.4,-21.5 1.9,-1 4,-1.6 5.6,-2.9 10.6,-8.2 16.3,-19.5 17.5,-32.5 0.9,-9.9 -6.5,-12.1 -13.8,-8.7 -14,6.7 -22.5,28.1 -17.2,42.7 -10.3,-0.3 -17.8,5 -23.6,12.5 -9.1,11.9 -17.6,24.3 -26.3,36.4 -1.8,2.5 -3.7,4.9 -5.6,7.3 -0.3,-1.8 0.1,-3 0.8,-4.1 7.3,-12.9 14.7,-25.7 21.8,-38.7 1,-1.9 1.4,-4.9 0.6,-6.7 -0.5,-1.1 -4.1,-1.1 -6.2,-0.9 -9.4,0.9 -18.7,5.6 -28.3,0.4 -1.3,-0.7 -3.6,-0.1 -5.3,0.4 -5.2,1.7 -10.2,3.6 -15.5,5.5 8.4,-12.4 17.3,-24.4 20.4,-39.2 3.4,-16.4 -5.7,-26.4 -22.2,-22.1 -12.7,3.3 -21.3,11.4 -26,23.8 -4.3,-5.8 -8.4,-7.1 -14.1,-4.7 -2.7,1.2 -5.5,2.4 -7.9,4.1 -21.7,15.9 -36.5,37 -45.4,62.2 -2.1,5.9 -2.2,12.8 -5.5,17.7 -3.9,5.8 -10.2,10 -16.2,15.6 2,-12.2 3.8,-23.9 5.8,-35.5 0.2,-1.2 1.1,-2.4 2,-3.3 5.8,-5.9 11.9,-11.5 17.3,-17.8 6.8,-7.9 12.4,-16.7 15.1,-26.9 1.6,-6 -2.3,-11.3 -8.4,-11 -3.2,0.1 -6.9,0.6 -9.4,2.2 -6.9,4.4 -13.8,9.1 -19.9,14.6 -12.3,11.3 -21.5,25 -28.4,40.2 -2,4.4 -5.1,6.1 -9.3,6.9 -1.9,0.4 -3.9,0.7 -5.8,1 -9.6,1.5 -16.1,-3.1 -15.5,-11.1 0.4,-5 4,-7.1 7.9,-9.2 1.9,-1 4.5,-2.9 4.7,-4.7 0.2,-1.6 -2.1,-3.9 -3.7,-5.3 -1.3,-1 -3.3,-1.4 -5,-1.6 -9.2,-1.1 -17.2,1.8 -24.5,7.2 -8.4,6.3 -13.3,18.8 -10.6,27.5 3.3,10.7 11.3,16.5 24,16.4 9.3,-0.1 18.5,-1.3 28,-2 0,0.5 0,1.4 -0.2,2.4 -1.6,9.6 -3.5,19.1 -4.7,28.7 -1.5,11.7 -3.4,23.1 -11.8,32.3 -2.4,2.7 -3.5,6.4 -0.7,9.4 2.9,3 6.7,2.7 9.8,0.3 4.6,-3.5 9,-7.2 13.3,-11.2 13.9,-13.1 27.7,-26.3 41.6,-39.4 0.3,-0.3 0.8,-0.5 1.8,-1 0.2,11 -1.8,21 -7.4,30 -2,3.2 -2.8,6.1 0.2,8.8 3.4,3 6.6,1.8 9.6,-1 2.2,-2.1 4.5,-4.1 7.6,-6.9 -2.2,7.6 -1.8,8 4,10 1.2,0.4 2.5,2.9 2.4,4.3 -0.1,2 -1.2,4.2 -2.5,5.8 -8.3,9.6 -16.6,19.2 -25.3,28.4 -3.9,4.2 -8.8,7.5 -13.2,11.3 -2.9,2.5 -4.1,5.6 -2.4,9.1 1.7,3.4 4.8,4.1 8.4,3.3 3.4,-0.8 6.7,-1.7 10.1,-2.3 6.7,-1.3 13.3,-2.4 20,-3.5 0.3,0.5 0.5,1 0.8,1.5 -3.4,5 -6.7,10.1 -10.1,15.1 -4.1,5.9 -9.3,10.1 -16.7,11.1 -1.5,0.2 -3.5,1.8 -4.1,3.2 -0.9,1.9 -1.3,4.6 -0.6,6.4 0.4,1 3.6,1.5 5.5,1.2 11.4,-1.5 22.8,-3.3 34.1,-5.1 5.2,-0.8 10.4,-1.7 15.5,-2.8 3.8,-0.8 5.6,-3.9 4.9,-7.4 -0.7,-3.9 -3.9,-4.4 -7.3,-3 -0.3,0.1 -0.9,-0.3 -2.1,-0.7 3.8,-6.7 7.5,-13.3 11.3,-19.8 0.3,-0.5 1,-0.9 1.6,-1.1 3.8,-0.9 7.6,-1.6 11.6,-2.5 -0.6,1.7 -1.1,3 -1.6,4.4 -5,16.6 2.1,30.5 18.4,34.7 7.2,1.9 14,2.3 21.5,3.4 z M 794.4,369.7 c -4.9,5 -9.4,9.6 -13.9,14.2 -0.7,0.7 -1.3,1.6 -1.5,2.4 -1.4,8.3 -2.8,16.7 -4.1,25.1 3.8,-2.7 7.9,-5.6 9.3,-9.4 4,-10.3 6.8,-21 10.2,-32.3 z m 229.4,130.4 c -3.7,2.9 -7.1,5.6 -9.7,7.6 1.3,5.4 2.5,10.4 3.7,15.4 0.3,0.1 0.5,0.2 0.8,0.3 1.8,-7.6 3.5,-15.3 5.2,-23.3 z M 988.4,353 c 1.2,3.1 2.2,5.9 3.3,8.6 0.3,0 0.5,0 0.8,0.1 0.4,-4.1 0.8,-8.2 1.2,-12.5 -1.8,1.3 -3.5,2.5 -5.3,3.8 z"
         id="path398"
         inkscape:connector-curvature="0"
         style="fill:#f241af" /><path
         class="st1"
         d="m 1024.4,450.7 c 3.9,-7.8 7.5,-15.2 11.4,-23 15.9,12.7 29.9,7.3 43.2,-4.9 7.4,6.5 15.9,6.1 24.7,4.4 0.2,0.5 0.3,0.9 0.5,1.4 -2.9,1.4 -5.8,3.6 -8.8,4.1 -9.1,1.5 -13.7,7.7 -17.9,15.1 -8.5,14.9 -17.4,29.5 -26.2,44.2 -0.2,0.4 -0.7,0.6 -0.8,0.7 -3.8,-1.6 -7.3,-3.1 -11.2,-4.7 0.9,-4.1 1.9,-8.7 2.9,-13.2 2.9,-11.8 -3.2,-23.8 -17.8,-24.1 z m 24.7,36.3 c 11.7,-19.1 23.2,-37.8 34.7,-56.6 -0.7,-0.4 -2.5,-1.3 -4.5,-2.4 -12.6,10.4 -26.3,15.4 -42,5.9 -2.2,4.4 -4.3,8.6 -6.4,13 7.8,3.1 14.1,7.8 15.1,15.9 0.9,7.3 -0.2,14.8 -0.5,22.8 0.6,0.3 2.1,0.9 3.6,1.4 z"
         id="path400"
         inkscape:connector-curvature="0"
         style="fill:#f241af" /><path
         class="st1"
         d="m 933.2,565 c 0.2,3.9 0.4,6.4 0.5,8.9 -2.1,0.2 -4.3,0.3 -7,0.6 2.2,-3.2 4,-5.9 6.5,-9.5 z"
         id="path402"
         inkscape:connector-curvature="0"
         style="fill:#f241af" /><path
         class="st1"
         d="m 1054.9,359.1 c -6.2,1.3 -12.4,2.8 -18.7,3.8 -5.4,0.9 -7.1,2.3 -6.1,7.9 2.1,12.9 1.1,25.5 -3.2,37.6 -4,11.1 -9.4,21.6 -14.2,32.4 -0.6,1.3 -1.8,2.8 -1.6,3.9 2.1,11.4 -3.6,20.6 -9,29.4 -17.7,29.2 -42.3,51.4 -71.5,68.7 -1.5,0.9 -2.7,2.3 -3.7,3.7 -4.8,7.1 -9.2,14.5 -14.4,21.2 -5.2,6.8 -11.2,12.9 -16.7,19.3 14.7,5.6 25.3,6.8 35.3,-3.1 3.6,6.9 -1.8,16.1 -8.5,20.7 -12.5,8.5 -26.3,10.2 -40,4.2 -7.7,-3.4 -13.3,-3.2 -19.8,2.1 -10,8 -22.1,11.6 -34.7,12.8 -4.1,0.4 -8.6,-0.7 -12.5,-2.2 -5.2,-2.1 -7,-9.3 -4.6,-15.1 3.9,-9.4 11.8,-14.4 20.6,-18.2 11.4,-5 23.5,-6.5 35.8,-6 3.7,0.2 5.8,-1 7.5,-4.2 3.1,-6.1 6.7,-12.1 10.5,-18.9 -5.7,0 -10.6,0.3 -15.5,-0.1 -7.8,-0.6 -15.3,-2.1 -21.6,-7.2 -7.2,-5.7 -8.5,-13.3 -6.6,-21.4 3.4,-14.1 16.8,-25 31.3,-26.3 8.1,-0.7 9.7,-0.4 15.2,3 -7,3.1 -13.3,6.6 -16.7,13.8 -6.7,14.2 1.8,24.4 16.5,26 1.1,0.1 2.9,-1.7 3.7,-3.1 7.5,-12.1 14.2,-24.9 22.6,-36.4 14,-19.2 30.4,-36.3 49.4,-50.7 2.2,-1.6 3.3,-5.1 4.1,-7.9 4.9,-17 13.8,-31.9 23,-46.7 7.5,-12 15.3,-23.8 23,-35.7 -3.4,-0.7 -6.6,-1.4 -10.3,-2.1 -6.9,11.1 -14,22.6 -21.1,34 -7.9,12.7 -16.5,25 -28.9,33.6 -3.3,2.3 -8,3.9 -11.9,3.5 -7.6,-0.7 -11.3,-8.1 -8.9,-16.2 3.4,-11.4 9.7,-21.1 16.5,-30.7 4.7,-6.7 9.2,-13.6 13.6,-20.6 0.7,-1.1 0.3,-2.9 0.4,-4.3 -1.5,0.5 -3.5,0.5 -4.3,1.4 -5.1,6.3 -10.2,12.5 -14.8,19.2 -10.5,15.2 -20.6,30.6 -31,45.8 -4,5.8 -9.3,10.2 -15.9,13.1 -4.5,2 -9.1,1.7 -12.6,-1.5 -3.2,-2.9 -4.1,-7 -2.9,-11.4 0.6,-2 1,-4.1 1.7,-7.2 -4.3,5.3 -7.4,10.2 -11.5,14.2 -4.3,4.1 -9.1,8.3 -14.5,10.6 -7.6,3.2 -14.6,-2.1 -14,-10.4 0.4,-6.4 1.5,-13.2 4,-19.1 9.6,-22.6 24.4,-41 45.9,-53.5 2.3,-1.3 4.8,-2.2 7.2,-3.1 7.6,-2.8 10.3,-1.5 14.3,6.4 1.6,-3.4 3.9,-5 8,-5.3 5.3,-0.3 10.6,-1.9 16.7,-3.2 -5.3,9.4 -10.4,18.1 -15.2,26.9 -4.1,7.5 -8.1,15 -11.9,22.6 -0.6,1.3 0.1,3.2 0.1,4.9 1.8,-0.3 4.1,0.1 5.2,-0.9 3.8,-3.5 7.6,-7.3 10.7,-11.4 10.3,-13.5 20.2,-27.3 30.7,-40.6 4.2,-5.3 10.3,-7.5 17.3,-6.9 5.6,0.4 9.4,4.7 7.2,9.7 -4.2,9.7 -9.5,19 -14.2,28.6 -1.4,2.9 -2.8,5.9 -3.8,9 -1,3 1.6,5.5 4.2,3.8 3.7,-2.5 7.5,-5.5 9.9,-9.1 6.4,-9.6 12.4,-19.5 17.7,-29.7 2.3,-4.3 2.4,-9.7 3.9,-14.5 0.7,-2.4 1.9,-5 3.7,-6.7 1.2,-1.2 3.7,-1.2 5.6,-1.7 0.4,2 1.7,4.2 1.1,5.8 -1,3.2 -3.1,6.1 -4.7,9.1 6.1,4.1 9.7,3.7 13.1,-1.9 11.8,-19.4 23.4,-38.9 35.2,-58.4 0.9,-1.4 2.2,-3.3 3.7,-3.6 11.2,-2.4 19.2,-9.8 27.4,-17 0.9,-0.8 1.9,-1.6 2.9,-2.4 0.3,0.3 0.7,0.5 1,0.8 -18.1,27.2 -36.2,54.3 -55.1,82.8 8.1,-2.1 14.8,-3.8 22.1,-5.6 -0.9,2.5 -1.6,4.4 -2.3,6.3 l -0.1,-0.4 z M 933.1,531.8 c 0.7,0.5 1.4,1 2.1,1.5 27.4,-21.1 53.6,-43.2 66.6,-76.9 -2.4,1.4 -4,3.5 -6,5.2 -5,4.2 -9.9,9.3 -16.9,9.2 -4.2,-0.1 -6.9,1.2 -8.9,4.6 -0.7,1.3 -1.8,2.4 -2.6,3.6 -11.5,17.6 -22.9,35.2 -34.3,52.8 z M 872.2,414.6 c 0.9,1.8 1.3,3.5 2.1,3.9 1.1,0.4 3.1,0.3 4,-0.5 3.8,-3.4 7.7,-6.7 10.8,-10.7 7.9,-10.2 16,-20.5 19.1,-33.5 0.4,-1.7 -0.1,-3.6 -0.2,-5.4 -1.8,0.5 -3.9,0.5 -5.3,1.5 -9.9,7 -16.8,16.7 -22.6,27.1 -3.2,5.6 -5.3,11.8 -7.9,17.6 z m 152.5,-37.9 c -1.2,1.3 -2,1.8 -2.3,2.5 -5.7,11 -11.8,21.8 -16.9,33 -2.7,6 -3.9,12.8 -5.4,19.3 -0.3,1.3 0.9,2.9 1.4,4.4 1.6,-0.6 3.9,-0.6 4.7,-1.8 3.7,-5.2 7.5,-10.4 10.3,-16.1 6,-12.7 9.8,-26 8.2,-41.3 z M 858.3,599.4 c -7.9,-2.7 -15.3,-3.3 -22.8,-1.6 -6.3,1.4 -12.6,3.1 -16.1,9.2 -1.2,2.1 -1.9,5.3 -1,7.3 0.7,1.5 4,2.6 6.2,2.7 14.2,0.2 23.8,-8.2 33.7,-17.6 z"
         id="path404"
         inkscape:connector-curvature="0"
         style="fill:#f241af" /><path
         class="st1"
         d="m 788.1,417.2 c -2.9,2.9 -5.7,5.9 -8.7,8.8 -17,16.1 -34,32.2 -51.2,48 -1.9,1.8 -4.9,2.4 -7.3,3.5 -0.4,-0.5 -0.7,-1 -1.1,-1.6 1.1,-1.5 2,-3.2 3.2,-4.6 8.1,-9.4 9.2,-21 11.1,-32.6 2.1,-12.6 4.9,-25.1 7.4,-37.6 0.1,-0.6 0.3,-1.1 0.5,-1.9 -7.3,1.8 -14.2,4.2 -21.2,5 -6.6,0.8 -13.7,0.8 -20.2,-0.5 -16.2,-3.2 -17.9,-18.6 -9.6,-29.9 5.9,-8 14.3,-12.1 24.5,-11.8 2.2,0.1 4.3,0.9 6.4,2.7 -1.7,0.9 -3.4,1.8 -5.1,2.8 -5,2.8 -8.9,10.8 -7.6,16 1.4,5.6 7,10.6 13.3,10.4 6.5,-0.2 13.1,-1.2 19.5,-2.5 1.9,-0.4 4,-2.7 4.9,-4.6 10.3,-22.8 24.8,-42 46.4,-55.2 3.5,-2.2 8.1,-4.7 11.9,-1.3 3.6,3.2 0.8,7.4 -0.8,10.9 -6.9,14.6 -17.7,26 -29.3,37.1 -3.3,3.1 -4.1,9.4 -5,14.4 -2.5,13.7 -4.4,27.4 -6.6,41.1 3.6,-3.5 7.4,-7.6 11.6,-11.2 10.2,-8.8 16.6,-19.2 20.5,-32.6 7.4,-25.6 22.8,-46.6 44.6,-62.5 1.4,-1.1 3,-2.2 4.7,-2.6 2.7,-0.6 6.9,-1.8 8.1,-0.5 1.7,1.8 2,5.8 1.4,8.5 -2.2,9.9 -8.5,17.7 -14.4,25.6 -4.8,6.3 -10.3,12.1 -15,18.4 -1.6,2.2 -2.4,5.3 -2.8,8.1 -1.5,12.2 -2.8,24.5 -4.4,38.6 2.5,-3.1 4.4,-5.5 6.3,-7.9 12.9,-15.7 26.5,-30.8 38.6,-47.1 7,-9.4 11.8,-20.5 12.7,-32.7 0.6,-8.6 -2.4,-12.3 -11.6,-11.5 2,-3.2 3.5,-6 5.4,-8.4 5.2,-6.4 12,-10.4 20.1,-11.7 10.5,-1.6 16.7,6.1 14.3,16.7 -3.1,13.8 -10.3,25.5 -18.7,36.5 -8.4,11 -17,22 -26.3,32.2 -12.2,13.4 -25,26.3 -37.9,39 -12.1,11.8 -24.8,23.1 -37.2,34.5 -0.8,0.7 -2.2,0.9 -3.3,1.4 0,-1.3 -0.5,-2.9 0.1,-3.8 6.2,-9.5 7.9,-20 8,-31.1 0,-3.9 0.7,-7.9 1.1,-11.8 -0.5,-0.3 -0.9,-0.5 -1.3,-0.7 z m 39.3,-51.7 c 8.5,-11.3 19,-21.4 21.7,-36 -11.8,9.3 -17.4,22.3 -21.7,36 z m -50.4,3.9 c 9.5,-9.7 18.6,-19.7 22.4,-33.2 -11.3,8.5 -17.9,20.1 -22.4,33.2 z"
         id="path406"
         inkscape:connector-curvature="0"
         style="fill:#f241af" /><path
         class="st1"
         d="m 1036.1,514.6 c 6.7,4.5 11.8,3.5 15.6,-2.9 13.3,-22.1 26.5,-44.3 39.8,-66.5 0.8,-1.4 2.4,-2.7 3.8,-3.2 11.9,-3.8 22,-10.4 30.7,-19.3 1.1,-1.2 2.7,-2 4,-3 0.4,0.3 0.7,0.7 1.1,1 -20.7,31.1 -41.5,62.2 -62.8,94.2 8.9,-2.2 16.9,-4.1 24.8,-6 -1.9,10.6 -10.9,8 -17.3,9.9 -2.8,0.8 -5.9,0.7 -8.8,1.2 -4.2,0.7 -5.3,4.4 -4.8,7.5 4,22 -1,42.4 -9.7,62.4 -6.6,15.3 -15.4,29.2 -27.2,41 -3.9,3.9 -8.6,7.2 -13.5,10 -5.1,2.9 -10.8,4.4 -16.1,0.3 -5.5,-4.2 -6.7,-10.5 -5.4,-16.6 1.7,-8 4.1,-16 7.3,-23.4 11.4,-25.9 28,-48.8 43.2,-72.4 1,-1.6 2.1,-3.2 3.4,-5.1 -3.7,-0.8 -7,-1.8 -10.3,-2 -1.2,-0.1 -2.9,1.4 -3.7,2.7 -11.6,18 -22.6,36.3 -34.7,53.9 -6.4,9.3 -14.1,18.1 -25,22.9 -7.8,3.5 -13,2.5 -17.5,-3.7 -3.3,-4.6 -2.6,-9.8 -1.2,-14.7 3.8,-13.4 12,-24.4 19.7,-35.7 4.8,-7.1 9.6,-14.2 14.1,-21.4 0.8,-1.2 0.3,-3.3 0.4,-4.9 -1.7,0.6 -4.1,0.7 -5,1.9 -8.6,11.1 -16.9,22.3 -25.2,33.6 -1.6,2.1 -2.7,4.6 -4.4,6.5 -1.1,1.3 -2.9,2 -4.3,2.9 -0.5,-0.5 -1.1,-1.1 -1.6,-1.6 11.5,-15.2 22.8,-30.6 34.7,-45.4 5.2,-6.5 12.7,-9.1 21.3,-8.4 5.8,0.5 9.9,5.1 7.8,10.6 -3,7.9 -6.9,15.5 -10.7,23.1 -2.9,5.9 -6.4,11.4 -9.1,17.4 -0.9,1.9 0.1,4.6 0.3,6.9 2.4,-0.4 5.7,0 7,-1.4 4.8,-5.1 9.5,-10.4 13.3,-16.3 6,-9.4 11.7,-19.1 16.7,-29.1 1.8,-3.6 1.3,-8.4 2.3,-12.6 0.7,-3 1.8,-6.2 3.7,-8.5 1.4,-1.6 4.8,-3.1 6.7,-2.5 3.3,1 3.1,4.5 1.9,7.2 -1.5,3.1 -3.5,6.3 -5.3,9.5 z m 19.5,21.2 c -10,18.1 -20.9,35.4 -26.1,55.3 -1.1,4 -3.7,9 1.1,12.8 13.8,-2.8 31.6,-53 25,-68.1 z"
         id="path408"
         inkscape:connector-curvature="0"
         style="fill:#f241af" /><path
         class="st1"
         d="m 1054.7,359.2 c 5,-5.5 9.5,-11.5 15.1,-16.2 3.8,-3.2 8.9,-5.7 13.8,-6.7 7.8,-1.5 12.6,4 9.7,11.3 -3.1,7.9 -7.6,15.2 -11.4,22.8 -2,4 -4.1,7.9 -5.7,12 -0.5,1.4 0,3.7 1,4.9 0.5,0.6 3.2,0.1 4.4,-0.6 8,-4.9 12.8,-12.8 17.6,-20.4 6.3,-10 12.2,-20.3 18.5,-30.3 1.3,-2 3.6,-4 5.8,-4.5 5.8,-1.5 11.9,-2.2 18.4,-3.3 -5.2,9 -10.3,17.6 -15.1,26.3 -3.9,7.2 -7.6,14.5 -11.2,21.9 -0.6,1.3 0.1,3.3 0.1,5 1.5,-0.2 3.5,0.1 4.5,-0.7 2.4,-1.9 5.1,-3.9 6.4,-6.5 4.2,-8.6 9.8,-15.1 19.5,-17.4 1.3,-0.3 2.6,-1.4 3.6,-2.5 4.3,-4.8 8.7,-9.5 12.7,-14.6 4.1,-5.2 9.5,-9.4 10.5,-17.1 1.1,-7.8 6,-14.2 13.2,-18.2 1.4,-0.8 4.3,-0.9 5.1,-0.1 1.3,1.5 2.4,4.2 2,6 -1.3,5.7 -4.3,10.7 -9.4,14 -3.1,2 -4.3,4.1 -3.3,8.1 5.2,20.1 -0.3,38.2 -12,54.5 -6.8,9.4 -15.3,16.7 -28.1,17.3 -9.4,0.4 -15.9,-5.8 -17,-16.3 -2.5,3.4 -4.6,6.4 -6.9,9.2 -4.6,5.7 -9.6,10.9 -16.8,13.4 -4.3,1.5 -8.6,2 -12,-1.3 -3.5,-3.4 -3.6,-8 -2.7,-12.6 0.4,-1.7 1,-3.4 1.8,-5.7 -6.2,6.7 -11.6,13.2 -17.7,18.8 -3.5,3.2 -8,5.9 -12.5,7.5 -8.2,2.9 -15.9,-4.6 -14.3,-13.2 2,-11.1 8.2,-20 14.1,-29.1 5.2,-8 10.7,-15.8 15.8,-23.8 0.9,-1.4 1.1,-3.4 1.6,-5.1 -0.5,-0.4 -1.1,-0.8 -1.6,-1.2 -2.5,2.3 -5.4,4.3 -7.4,7 -7.4,10.1 -14.5,20.4 -21.9,30.5 -0.8,1.2 -2.2,2 -3.3,3 -0.4,-0.4 -0.7,-0.8 -1.1,-1.2 5,-7.5 10.1,-14.9 15.1,-22.4 0.5,-0.8 0.7,-1.7 1,-2.6 0.3,0 0.1,0.1 0.1,0.1 z m 97.9,-2.4 c 0.8,1 1.7,1.6 2,2.5 1,3.1 0.6,6 -2.5,7.8 -2,1.2 -4.4,2.3 -5.4,-1.5 -0.1,-0.4 -2.6,-0.8 -3,-0.4 -1.5,1.6 -3.6,3.7 -3.4,5.4 0.2,1.9 2.5,4.8 4.2,5.1 2.8,0.5 6.2,-0.2 8.8,-1.5 8.6,-4.3 13,-12.2 16.6,-20.6 2.7,-6.2 5,-12.6 3.5,-20.4 -1.5,1.3 -2.6,2.1 -3.4,3 -5.7,6.9 -11.5,13.6 -17.4,20.6 z"
         id="path410"
         inkscape:connector-curvature="0"
         style="fill:#f241af" /><path
         class="st1"
         d="m 1127.2,552.6 c -6.6,7.1 -12.1,13.7 -18.2,19.7 -3.4,3.3 -7.4,6.1 -11.6,8.4 -5.6,3.1 -11.6,2.9 -16.5,-1.5 -4.6,-4.1 -4.9,-9.6 -3.3,-15.1 4,-14 12.1,-25.8 20.4,-37.5 4.7,-6.7 9.2,-13.6 13.6,-20.6 1,-1.5 1.1,-3.6 1.6,-5.4 -0.5,-0.4 -1.1,-0.9 -1.6,-1.3 -2.8,2.4 -6.2,4.4 -8.4,7.3 -8.6,11.6 -16.9,23.6 -25.3,35.3 -1,1.4 -2.5,2.4 -3.7,3.6 -0.5,-0.4 -0.9,-0.8 -1.4,-1.2 2.4,-3.8 4.6,-7.6 7.3,-11.2 8.6,-11.7 17.2,-23.4 26.3,-34.7 4.5,-5.6 11.1,-8.1 18.1,-9.1 7.5,-1.1 13.7,5.2 10.9,12.2 -3.7,9.4 -9,18.1 -13.6,27.2 -2.3,4.5 -4.6,9.1 -6.5,13.8 -0.6,1.4 -0.2,4.1 0.7,4.9 1,0.9 4,1 5,0.1 4.6,-3.9 9.6,-7.7 12.9,-12.6 10.1,-15 19.9,-30.3 28.8,-46 3.1,-5.5 7.5,-4.4 11.6,-5.5 4.9,-1.3 9.9,-1.8 15.9,-2.9 -2.9,5.3 -5.6,10.2 -8.4,15 -6.5,11.6 -13.2,23.1 -19.6,34.8 -1.2,2.2 -2.1,4.9 -2.4,7.4 -0.5,4.2 1.7,5.9 4.8,3.3 5.8,-5 10.8,-10.9 16.1,-16.4 1.3,-1.3 2.6,-2.6 3.9,-3.9 0.5,0.5 1,0.9 1.5,1.4 -5.8,8.9 -11.1,18 -17.5,26.5 -5.8,7.7 -12.3,15 -19.1,21.9 -4.4,4.5 -10.6,5.2 -16.7,4.6 -3.6,-0.4 -6.9,-4.7 -7.1,-9 -0.1,-2.2 -0.1,-4.3 0,-6.5 0.5,-2.1 1,-4 1.5,-7 z"
         id="path412"
         inkscape:connector-curvature="0"
         style="fill:#f241af" /><path
         class="st1"
         d="m 830.6,512.3 c 3.9,-2 7.8,-3.8 11.6,-6 3.6,-2.1 7,-4.7 10.8,-6.8 -3,8.2 -6.9,15.5 -15.9,18.2 -3.3,1 -6.8,1.3 -10.1,2.3 -1.4,0.4 -3.1,1.4 -3.8,2.7 -3.9,6.5 -7.7,13 -11.2,19.7 -3.5,6.6 -2.7,7.7 4.6,7.6 1.1,0 2.2,0 3.5,0 -2.2,2.8 -42.3,10.2 -51.4,9.7 0.7,-0.9 1.2,-2.2 1.8,-2.2 10.2,-1.1 16.3,-7.9 21.5,-15.8 4.1,-6.2 8.1,-12.6 12.6,-19.4 -11.6,-1 -22,0.1 -32.1,3.5 -2.3,0.8 -4.8,1.2 -7.2,1.5 -1.3,0.1 -2.6,-0.6 -3.9,-1 0.5,-1.4 0.6,-3.3 1.6,-4.3 9.5,-9.1 19.5,-17.5 28.5,-27.1 5.2,-5.5 9.3,-12.3 12.7,-19.2 3.1,-6.2 0.4,-9.9 -6.9,-11.1 5,-6.5 11.9,-8.6 19.3,-9.6 1.3,-0.2 2.7,-0.1 4,0 7.2,0.2 10.5,5.5 7.7,12.3 -3.9,9.3 -10.7,16.3 -18.1,22.7 -11.5,9.9 -23.4,19.2 -34.9,28.6 6,-1 12.5,-2 19,-3 0.2,0 0.3,-0.2 0.5,-0.2 15.1,2.9 19.6,-8.8 25.6,-18.5 6.2,-10.1 12.6,-20.1 19,-30 0.7,-1.1 1.7,-2.4 2.8,-2.6 12.1,-2.8 21.3,-10.1 29.4,-19 0.4,-0.5 1,-0.8 2.3,-0.5 -14.6,22.2 -29.2,44.4 -43.8,66.6 0,0.2 0.2,0.5 0.5,0.9 z"
         id="path414"
         inkscape:connector-curvature="0"
         style="fill:#f241af" /><path
         class="st1"
         d="m 858.7,503.5 c -1.1,-2.7 -1.5,-6 -3.3,-7.4 -5.1,-4 -7.8,2.5 -12.9,4.1 4.9,-7.7 9.3,-14.5 13.7,-21.2 6.2,-9.4 12.4,-18.6 18.5,-28 1.7,-2.6 3,-5.6 4.6,-8.6 3.5,4.7 8.8,7.2 14.6,5.5 5.5,-1.6 11.3,-4.1 15.3,-7.9 6.9,-6.7 12.6,-14.7 18.7,-22.1 0,1.5 0.2,3.5 0,5.4 -1.2,12.5 11.2,20.5 23.4,14.9 8.7,-4.1 14.7,-11.1 20.9,-18 1.7,-1.9 3.3,-4 5.7,-5.5 -0.6,1.3 -1.4,2.6 -1.9,3.9 -4.3,10.6 -8.6,21.2 -13,31.8 -0.6,1.4 -1.7,2.7 -2.9,3.7 -17,13.1 -31.5,28.7 -45.2,45.2 -10.5,12.6 -18.7,26.6 -26.5,40.9 -0.6,1 -2.8,2.1 -4,1.8 -12.7,-3.2 -13.3,-14.8 -6.8,-22.4 2.6,-3.1 6.9,-4.9 10.3,-7.4 1.9,-1.4 4.7,-3.1 4.8,-4.8 0.1,-1.7 -2.4,-4.2 -4.3,-5.2 -9.2,-4.5 -18.5,-2.7 -27.6,0.6 -1.2,0.2 -2.2,0.7 -2.1,0.7 z M 965,433.7 c -7.3,5.2 -13.8,10.7 -22.9,10.3 -9.8,-0.4 -14.7,-6.8 -17.9,-15.2 -11.8,13.6 -22,29.8 -44,20.7 -9.4,14.1 -18.7,28.1 -27.6,41.5 3.2,2.6 6.4,5.2 10.2,8.3 -0.1,0 1.1,-0.4 2.4,-0.7 9.2,-2 18.3,-2.9 26.7,2.6 5.8,3.8 5.5,10.7 -0.6,13.8 -2.2,1.1 -4.7,1.8 -6.7,3.2 -4.7,3.4 -8.5,7.5 -7.7,14 0.6,5 4.3,6.6 8.5,7.6 17.8,-34.4 42.1,-63.3 72.6,-87.2 0.9,-0.7 1.6,-1.7 2,-2.7 1.6,-5.3 3.2,-10.4 5,-16.2 z"
         id="path416"
         inkscape:connector-curvature="0"
         style="fill:#f241af" /><path
         class="st1"
         d="m 1030,468.1 c -1.5,11.7 -7.9,22.8 -18.6,31.4 -1.6,1.3 -5.5,1.8 -6.8,0.7 -1.8,-1.5 -3.4,-5 -3,-7.2 2.1,-12.6 7.9,-23.3 17.8,-31.6 0.5,-0.4 1.2,-0.6 1.7,-0.9 6,-3.1 8.9,-1.3 8.9,7.6 z"
         id="path418"
         inkscape:connector-curvature="0"
         style="fill:#f241af" /><path
         class="st1"
         d="m 860.3,328.1 c 2.5,0.2 5.5,0.5 9.5,0.8 2.2,3.2 1.5,7.7 0.6,11.9 -3.3,14.3 -10.9,26.4 -19.7,37.7 -6.7,8.6 -13.9,16.7 -21,25 -1.4,1.7 -3.1,3.1 -5.5,5.5 1,-9.2 2.3,-17 2.7,-24.8 0.3,-5.8 5.1,-8.2 7.8,-12.1 6.7,-9.9 14.1,-19.4 20.4,-29.6 2.6,-4.3 3.6,-9.8 5.2,-14.4 z m 2.1,5.1 c -0.4,1.5 -0.7,2.8 -1.2,4 -5.5,15.7 -15.9,28.3 -26.8,40.4 -6.1,6.8 -5.2,14.1 -4.5,22.1 10.9,-13.6 21.2,-27.4 30.7,-41.8 4.8,-7.2 7.6,-15.5 7.3,-24.7 -2,0 -3.6,0 -5.5,0 z"
         id="path420"
         inkscape:connector-curvature="0"
         style="fill:#f241af" /><path
         class="st1"
         d="m 976.3,339.9 c 2.5,-12.1 7.4,-21.5 16.1,-28.3 1.7,-1.3 5.6,-1.8 7.2,-0.8 1.5,1 2,4.7 1.6,7 -2,10.4 -6.2,19.7 -14.9,26.2 -1.8,1.3 -5.2,2.5 -6.8,1.7 -1.8,-1 -2.4,-4.2 -3.2,-5.8 z"
         id="path422"
         inkscape:connector-curvature="0"
         style="fill:#f241af" /><path
         class="st1"
         d="m 843,412.9 c -1.3,7.5 -3.5,15.5 -4,23.7 -0.6,10.3 4.9,15.6 15.8,17.4 -7.1,3.5 -14.3,7 -21.9,10.8 0.8,0.7 0.4,0.5 0.4,0.3 1.6,-12.9 -9.4,-16 -20.3,-13.7 -5,1 -9.8,3.2 -15.8,5.2 16,-15.2 31.3,-29.8 45.8,-43.7 z m -6,11.5 c -0.4,-0.3 -0.8,-0.5 -1.2,-0.8 -7.8,8.6 -15.6,17.3 -23,25.4 9,-1.4 18.6,-1.2 23.8,10.2 3.1,-1.1 6.1,-2.2 9.5,-3.4 -12.3,-8.2 -12.5,-19.3 -9.1,-31.4 z"
         id="path424"
         inkscape:connector-curvature="0"
         style="fill:#f241af" /><path
         class="st1"
         d="m 791.7,511.4 c 10.3,-8.9 20,-17.4 30.4,-26.4 -1.4,2.6 -2.5,4.8 -3.7,6.8 -2.8,4.5 -6,8.7 -8.4,13.3 -2.4,4.5 -5.5,6.6 -10.7,5.9 -2.2,-0.2 -4.5,0.3 -7.6,0.4 z"
         id="path426"
         inkscape:connector-curvature="0"
         style="fill:#f241af" /><path
         class="st1"
         d="m 1082.1,522.3 c -4.5,6.7 -8.6,12.8 -13.4,20.1 -0.7,-5.5 -1.1,-9.5 -1.6,-13.5 -0.3,-2.9 0.3,-4.7 3.9,-4.9 3.3,-0.2 6.7,-1 11.1,-1.7 z"
         id="path428"
         inkscape:connector-curvature="0"
         style="fill:#f241af" /><path
         class="st1"
         d="m 1035.7,380.9 c -0.7,-4.4 -1.3,-7.4 -1.4,-10.5 0,-1.1 1.1,-2.9 2.1,-3.2 2.6,-0.8 5.4,-0.9 9.4,-1.5 -3.7,5.4 -6.6,9.8 -10.1,15.2 z"
         id="path430"
         inkscape:connector-curvature="0"
         style="fill:#f241af" /><path
         class="st1"
         d="m 947.6,515.9 c 8.9,-13 17.7,-26 26.6,-39 0.6,-0.9 2,-1.5 3.2,-1.8 3.9,-0.9 7.9,-1.5 11.6,-2.2 -2.2,7.6 -29.7,36.8 -40.3,43.9 -0.4,-0.3 -0.8,-0.6 -1.1,-0.9 z M 981.7,480 c -0.3,-0.5 -0.7,-1 -1,-1.5 -9.5,3.7 -11.5,14.2 -18,20.5 0.4,0.4 0.8,0.7 1.2,1.1 6,-6.7 11.9,-13.4 17.8,-20.1 z"
         id="path432"
         inkscape:connector-curvature="0"
         style="fill:#f241af" /><path
         class="st1"
         d="m 902.8,375.4 c -3.3,11.4 -17.3,32.1 -25.1,37 5.5,-15.2 14.1,-26.9 25.1,-37 z"
         id="path434"
         inkscape:connector-curvature="0"
         style="fill:#f241af" /><path
         class="st1"
         d="m 1003.8,428 c 4.7,-10.9 9.4,-21.8 14.4,-33.5 1.5,7.1 -4.5,22.5 -12.7,34 -0.6,-0.2 -1.1,-0.3 -1.7,-0.5 z"
         id="path436"
         inkscape:connector-curvature="0"
         style="fill:#f241af" /><path
         class="st1"
         d="m 849.4,601.8 c -8.2,6.6 -16.2,11.7 -26.6,11.2 -1.1,-7.8 12.7,-13.7 26.6,-11.2 z"
         id="path438"
         inkscape:connector-curvature="0"
         style="fill:#f241af" /><path
         class="st1"
         d="m 1051.8,554 c -2.8,15.8 -8.2,30.1 -18,43.2 -1.2,-7.3 12.1,-38.9 18,-43.2 z"
         id="path440"
         inkscape:connector-curvature="0"
         style="fill:#f241af" /><path
         class="st1"
         d="m 1161,362.7 c -5.1,-8.9 3.9,-10.6 5.3,-15.7 0.5,0.2 1,0.4 1.5,0.7 -2.2,4.6 -4.3,9.3 -6.8,15 z"
         id="path442"
         inkscape:connector-curvature="0"
         style="fill:#f241af" /><path
         class="st1"
         d="m 881.9,459.8 c 19.4,2.1 19.4,2.1 41.5,-17.3 8.4,10.8 19.2,12 31.7,8.1 -20.7,16.4 -37.9,35.9 -54,56.4 -5.7,-9.1 -18.4,-14.1 -29,-11.7 -4.2,0.9 -8.7,2.7 -11.6,-3.1 7,-10.6 14.2,-21.6 21.4,-32.4 z M 866,491.3 c 13.6,-2.3 25.2,0.5 34.9,8 13.1,-14.1 26.2,-28.2 38.7,-41.7 -5.4,-2.6 -11.2,-5.4 -17.3,-8.4 0.1,-0.1 -0.2,0.1 -0.5,0.3 -10.1,10.5 -21.5,17.5 -36.8,15 -0.7,-0.1 -1.9,0.6 -2.3,1.3 -5.6,8.5 -11.1,17 -16.7,25.5 z"
         id="path444"
         inkscape:connector-curvature="0"
         style="fill:#f241af" /><path
         class="st1"
         d="m 888.8,525.9 c -1.9,3.5 -3.7,6.7 -5.7,10.3 -1.7,-5.2 0.1,-8.3 5.7,-10.3 z"
         id="path446"
         inkscape:connector-curvature="0"
         style="fill:#f241af" /></g></g></svg>